<svg xmlns="http://www.w3.org/2000/svg" xmlns:xlink="http://www.w3.org/1999/xlink" viewBox="0 0 1120 232"><defs><linearGradient id="a" x1="150.386" y1="198.059" x2="218.408" y2="198.059" gradientTransform="translate(132.03 -67.436) rotate(31.796)" gradientUnits="userSpaceOnUse"><stop offset="0" stop-color="#f6deae"/><stop offset="1" stop-color="#edc067"/></linearGradient><linearGradient id="b" x1="68.344" y1="213.084" x2="137.441" y2="213.084" gradientTransform="translate(288.033 65.725) rotate(77.257)" gradientUnits="userSpaceOnUse"><stop offset="0" stop-color="#e99d23"/><stop offset="1" stop-color="#f6deae"/></linearGradient><linearGradient id="c" x1="69.45" y1="188.061" x2="216.084" y2="188.061" gradientTransform="translate(34.659 -21.848) rotate(9.954)" gradientUnits="userSpaceOnUse"><stop offset="0" stop-color="#e99d23"/><stop offset="1" stop-color="#edc067"/></linearGradient><linearGradient id="d" x1="12.251" y1="158.337" x2="54.617" y2="158.337" gradientTransform="translate(80.545 3.518) rotate(28.848)" gradientUnits="userSpaceOnUse"><stop offset="0" stop-color="#edc067"/><stop offset="1" stop-color="#e99d23"/></linearGradient><linearGradient id="e" x1="11.481" y1="73.14" x2="56.02" y2="73.14" gradientTransform="translate(81.65 8.377) rotate(61.258)" gradientUnits="userSpaceOnUse"><stop offset="0" stop-color="#edc067"/><stop offset="1" stop-color="#f6deae"/></linearGradient><linearGradient id="f" x1="177.734" y1="51.543" x2="221.395" y2="51.543" gradientTransform="translate(62.4 -102.303) rotate(33.799)" xlink:href="#c"/><linearGradient id="g" x1="66.383" y1="21.241" x2="162.652" y2="21.241" gradientTransform="translate(3.98 -15.459) rotate(7.859)" gradientUnits="userSpaceOnUse"><stop offset="0" stop-color="#f6deae"/><stop offset="1" stop-color="#e99d23"/></linearGradient><linearGradient id="h" x1="65.992" y1="58.356" x2="217.014" y2="58.356" gradientTransform="translate(149.813 -94.482) rotate(70.701)" xlink:href="#a"/><linearGradient id="i" x1="77.932" y1="119.325" x2="77.932" y2="219.991" gradientTransform="translate(162.687 3.303) rotate(51.67)" xlink:href="#e"/><linearGradient id="j" x1="57.93" y1="190.866" x2="57.93" y2="38.505" gradientTransform="matrix(1, 0, 0, 1, 0, 0)" xlink:href="#b"/><linearGradient id="k" x1="16.239" y1="65.278" x2="165.424" y2="65.278" gradientTransform="translate(48.741 -38.356) rotate(32.192)" xlink:href="#d"/></defs><path d="M426.947,155.446c-15.811,27.21-40.9,41.554-72.1,41.554C311.63,197,276,158.189,276,116.631,276,69.593,313.105,35,355.057,35,384.573,35,412.189,48.5,428,77.82H400.593c-11.8-13.709-25.509-21.937-43.848-21.937-32.676,0-57.977,27.632-57.977,58.641,0,32.695,24.666,61.593,56.711,61.593,16.233,0,30.778-6.326,43.43-20.671Z" style="fill:#25445b"/><path d="M519.738,197C476.608,197,440,159.874,440,117.689,440,69.806,476.608,35,520.368,35,566.655,35,602,71.491,602,114.946,602,162.194,565.6,197,519.738,197Zm59.54-80.578c0-32.272-24.407-60.539-57.225-60.539-42.079,0-59.331,36.282-59.331,59.486,0,31.427,22.723,60.748,58.276,60.748C557.819,176.117,579.278,144.9,579.278,116.422Z" style="fill:#e99d23"/><path d="M700.524,194l-51.366-72.309h-.421V194H626V38h49.893C713.368,38,730,57.817,730,89.861c0,29.724-22.737,45.322-44.635,45.956L728.945,194Zm-35.159-75.468c26.53,0,41.9-10.333,41.9-30.568,0-17.921-14.316-29.094-34.529-29.094h-24v59.662Z" style="fill:#25445b"/><path d="M754,194V38h54.064C855.181,38,884,75.316,884,116c0,47.645-30.082,78-79.3,78Zm49.857-20.87c35.969,0,57.424-21.08,57.424-56.708,0-34.993-24.611-57.552-56.374-57.552H776.719V173.13Z" style="fill:#25445b"/><path d="M908,194V38h84V58.87H930.737v45.957H992V125.7H930.737V173.13H992V194Z" style="fill:#25445b"/><path d="M1090.528,194.35l-51.37-72.309h-.421V194.35H1016v-156h49.9c37.471,0,54.1,19.818,54.1,51.861,0,29.724-22.737,45.322-44.631,45.957l43.579,58.182Zm-35.159-75.468c26.526,0,41.894-10.332,41.894-30.568,0-17.92-14.316-29.093-34.525-29.093h-24v59.661Z" style="fill:#25445b"/><line x1="216.88" y1="177.913" x2="151.914" y2="218.203" style="fill:#1d2b5b"/><rect x="146.175" y="195.159" width="76.445" height="5.8" transform="translate(-76.684 126.882) rotate(-31.796)" style="fill:url(#a)"/><line x1="136.801" y1="220.752" x2="68.983" y2="205.416" style="fill:#1d2b5b"/><rect x="99.993" y="178.319" width="5.8" height="69.53" transform="translate(-127.638 266.442) rotate(-77.257)" style="fill:url(#b)"/><line x1="215.582" y1="175.286" x2="69.952" y2="200.835" style="fill:#1d2b5b"/><rect x="68.839" y="185.161" width="147.856" height="5.8" transform="translate(-30.36 27.511) rotate(-9.954)" style="fill:url(#c)"/><line x1="14.791" y1="124.494" x2="52.077" y2="192.18" style="fill:#1d2b5b"/><rect x="30.534" y="119.699" width="5.8" height="77.276" transform="translate(-72.247 35.781) rotate(-28.848)" style="fill:url(#d)"/><line x1="53.477" y1="37.172" x2="14.024" y2="109.108" style="fill:#fff"/><rect x="-7.272" y="70.24" width="82.044" height="5.801" transform="translate(-46.608 67.562) rotate(-61.258)" style="fill:url(#e)"/><line x1="180.144" y1="22.532" x2="218.986" y2="80.555" style="fill:#fff"/><rect x="196.664" y="16.632" width="5.801" height="69.823" transform="translate(5.055 119.725) rotate(-33.799)" style="fill:url(#f)"/><line x1="66.779" y1="27.836" x2="162.255" y2="14.645" style="fill:#fff"/><rect x="66.326" y="18.341" width="96.383" height="5.799" transform="translate(-1.829 15.858) rotate(-7.859)" style="fill:url(#g)"/><line x1="216.055" y1="84.463" x2="66.95" y2="32.25" style="fill:#fff"/><rect x="138.603" y="-20.635" width="5.8" height="157.983" transform="translate(39.659 172.621) rotate(-70.701)" style="fill:url(#h)"/><line x1="17.147" y1="121.6" x2="138.719" y2="217.717" style="fill:#fff"/><rect x="75.033" y="92.169" width="5.8" height="154.978" transform="translate(-103.489 125.571) rotate(-51.67)" style="fill:url(#i)"/><line x1="57.872" y1="38.507" x2="57.991" y2="190.863" style="fill:#fff"/><rect x="55.03" y="38.507" width="5.8" height="152.357" style="fill:url(#j)"/><circle cx="223.3" cy="173.932" r="8.7" style="fill:#edc067"/><circle cx="57.864" cy="29.068" r="10.15" style="fill:#f6deae"/><circle cx="58" cy="202.932" r="13.05" style="fill:#e99d23"/><circle cx="144.864" cy="222.575" r="9.425" style="fill:#f6deae"/><circle cx="223.3" cy="87" r="8.7" style="fill:#edc067"/><circle cx="173.796" cy="13.05" r="13.05" style="fill:#e99d23"/><line x1="163.879" y1="19.293" x2="17.783" y2="111.263" style="fill:#fff"/><rect x="4.515" y="62.378" width="172.634" height="5.799" transform="translate(-20.813 58.427) rotate(-32.192)" style="fill:url(#k)"/><circle cx="10.15" cy="116.068" r="10.15" style="fill:#edc067"/></svg>