<svg xmlns="http://www.w3.org/2000/svg" xml:space="preserve" viewBox="0 0 500 500"><path d="M278 501H1V1h500v500H278M53 218.49c-.327 1.246-.902 2.485-.942 3.74-.404 12.583-1.357 25.193-.871 37.746.44 11.352 1.857 22.759 3.942 33.936 4.164 22.323 12.94 43.017 24.728 62.341 11.436 18.746 26.127 34.733 42.813 49 19.005 16.248 40.466 28.078 64.059 35.954 23.102 7.713 46.858 11.63 71.309 9.754 9.923-.762 19.853-1.67 29.71-3.022 17.332-2.378 33.684-8.172 49.415-15.62 26.145-12.38 48.42-29.826 67.047-51.985 12.013-14.29 22.027-29.776 29.74-46.81 9.336-20.618 15.253-42.265 16.768-64.676 1.35-19.982.777-40.087-3.603-59.953-5.437-24.658-15.3-47.236-28.911-68.402-10.197-15.857-22.298-29.984-37.032-41.648-9.991-7.91-20.246-15.69-31.2-22.141-25.208-14.846-52.736-23.662-81.886-25.392-17.23-1.022-34.832-.327-51.919 2.073-19.032 2.674-37.14 9.435-54.521 18.18-21.09 10.611-39.612 24.312-56.017 41.205-13.812 14.223-24.77 30.351-33.828 47.864C62.5 178.613 56.66 197.748 53 218.49z"/><path fill="#FFF" d="M53 218.043c3.66-20.295 9.5-39.43 18.8-57.409 9.06-17.513 20.017-33.641 33.829-47.864 16.405-16.893 34.927-30.594 56.017-41.204 17.382-8.746 35.49-15.507 54.521-18.18 17.087-2.4 34.69-3.096 51.919-2.074 29.15 1.73 56.678 10.546 81.887 25.392 10.953 6.45 21.208 14.23 31.2 22.14 14.733 11.665 26.834 25.792 37.031 41.649 13.61 21.166 23.474 43.744 28.911 68.402 4.38 19.866 4.954 39.971 3.603 59.953-1.515 22.411-7.432 44.058-16.768 64.675-7.713 17.035-17.727 32.521-29.74 46.811-18.627 22.159-40.902 39.605-67.047 51.985-15.731 7.448-32.083 13.242-49.416 15.62-9.856 1.352-19.786 2.26-29.71 3.022-24.45 1.876-48.206-2.041-71.308-9.754-23.593-7.876-45.054-19.706-64.059-35.955-16.686-14.266-31.377-30.253-42.813-48.999-11.789-19.324-20.564-40.018-24.728-62.34-2.085-11.178-3.503-22.585-3.942-33.937-.486-12.553.467-25.163.871-37.745.04-1.256.615-2.495.942-4.188M189.702 62.035c-13.567 6.153-27.68 11.345-40.58 18.672-21.967 12.476-40.229 29.591-55.82 49.494-11.406 14.558-20.642 30.505-27.1 47.712-9.798 26.105-14.924 53.054-13.467 81.317.929 18.033 4.039 35.394 9.295 52.501 7.867 25.608 20.527 48.718 38.194 68.76 14.341 16.268 30.672 30.475 49.549 41.496 15.176 8.86 31.221 15.725 48.144 20.364 7.754 2.126 15.711 3.762 23.683 4.786 10.706 1.376 21.503 2.389 32.285 2.7 6.808.197 13.733-.753 20.476-1.93 11.098-1.94 22.197-4.065 33.105-6.855 21.9-5.6 41.585-16.082 59.85-29.151 14.786-10.581 28.056-23.034 39.288-37.293 12.377-15.714 22.344-32.958 29.49-51.804 6.738-17.771 11.353-36.113 12.639-54.928 1.198-17.521.87-35.158-2.572-52.672-3.37-17.146-8.435-33.655-15.882-49.355-12.008-25.316-28.732-47.063-50.117-65.36-12.136-10.384-25.255-19.127-39.334-26.42-13.989-7.247-28.728-12.748-44.19-16.015-9.006-1.903-18.056-4.421-27.166-4.811-13.845-.593-27.861-.496-41.614 1.026-12.575 1.392-24.897 5.063-38.156 7.766z"/><path d="M190.115 62.017c12.846-2.685 25.168-6.356 37.743-7.748 13.753-1.522 27.769-1.619 41.614-1.026 9.11.39 18.16 2.908 27.166 4.811 15.462 3.267 30.201 8.768 44.19 16.015 14.079 7.293 27.198 16.036 39.334 26.42 21.385 18.297 38.109 40.044 50.117 65.36 7.447 15.7 12.512 32.21 15.882 49.355 3.442 17.514 3.77 35.15 2.572 52.672-1.286 18.815-5.9 37.157-12.64 54.928-7.145 18.846-17.112 36.09-29.49 51.804-11.23 14.26-24.5 26.712-39.288 37.293-18.264 13.069-37.95 23.551-59.849 29.151-10.908 2.79-22.007 4.916-33.105 6.854-6.743 1.178-13.668 2.128-20.476 1.931-10.782-.311-21.579-1.324-32.285-2.7-7.972-1.024-15.929-2.66-23.683-4.786-16.923-4.64-32.968-11.503-48.144-20.364-18.877-11.02-35.208-25.228-49.549-41.497-17.667-20.041-30.327-43.151-38.194-68.759-5.256-17.107-8.366-34.468-9.295-52.5-1.457-28.264 3.669-55.213 13.467-81.318 6.458-17.207 15.694-33.154 27.1-47.712 15.591-19.903 33.853-37.018 55.82-49.494 12.9-7.327 27.013-12.52 40.993-18.69m-42.136 312.99s-.072.018.166.669c9.217 6.217 18.001 13.242 27.752 18.462 14.76 7.9 30.497 13.43 47.253 16.019 13.489 2.084 26.781 3.51 40.531 2.053 15.394-1.632 30.29-4.682 44.705-10.208 19.53-7.487 37.177-18.109 52.447-32.415 11.725-10.987 21.424-23.587 29.711-37.445 12.245-20.476 19.486-42.62 21.134-66.13 1.054-15.042.396-30.533-2.029-45.409-3.346-20.529-11.238-39.799-22.858-57.3-8.64-13.015-18.199-25.31-30.825-34.69-10.352-7.691-20.672-15.696-31.966-21.782-16.363-8.818-34.081-13.899-52.801-16.098-15.477-1.819-30.786-1.545-46.011.464-16.652 2.197-32.437 7.875-47.426 15.512-22.942 11.689-41.98 28.138-57.405 48.621-11.712 15.552-20.228 32.932-24.773 51.857-2.79 11.62-4.218 23.626-5.432 35.543-.806 7.92-.364 15.998-.058 23.989.14 3.649 1.3 7.259 1.452 11.275-2.561 3.874-2.08 6.964 2.444 9.867 1.908 12.855 6.933 24.689 12.633 36.158 9.616 19.347 23.322 35.656 39.168 50.215.538.494 1.458.573 2.188.772z"/><path fill="#F5F6F6" d="M92.09 277.605c-.696-3.627-1.856-7.237-1.996-10.886-.306-7.991-.748-16.069.058-23.99 1.214-11.916 2.642-23.922 5.432-35.542 4.545-18.925 13.061-36.305 24.773-51.857 15.426-20.483 34.463-36.932 57.405-48.621 14.989-7.637 30.774-13.315 47.426-15.512 15.225-2.009 30.534-2.283 46.01-.464 18.72 2.2 36.44 7.28 52.802 16.098 11.294 6.086 21.614 14.091 31.966 21.782 12.626 9.38 22.185 21.675 30.825 34.69 11.62 17.501 19.512 36.771 22.858 57.3 2.425 14.876 3.083 30.367 2.029 45.409-1.648 23.51-8.89 45.654-21.134 66.13-8.287 13.858-17.986 26.458-29.711 37.445-15.27 14.306-32.918 24.928-52.447 32.415-14.416 5.526-29.31 8.576-44.705 10.208-13.75 1.457-27.042.031-40.531-2.053-16.756-2.59-32.493-8.118-47.253-16.02-9.75-5.22-18.535-12.244-27.451-18.865 5.899-.117 7.07-1.239 7.548-6.583.65-7.281 1.5-14.546 2.295-21.814.671-6.13 2.497-10.324 10.15-10.938 5.863-.47 11.505-3.695 17.779-5.88 0 5.673-.102 11.13.02 16.581.293 13.075 7.695 20.353 20.657 20.363 26.832.02 53.664.007 80.495.007h4.743c1.258 6.176 1.465 11.7 3.526 16.413 5.005 11.444 19.552 14.66 31.847 7.117 12.3-7.546 19.307-18.479 19.473-33.35.018-1.633 1.052-3.844 2.344-4.78 8.94-6.482 12.812-15.546 13.61-26.116.77-10.202-2.209-19.327-9.183-26.823 10.824-12.725 13.174-19.099 12.252-32.784-1.24-18.403-14.052-28.119-31.44-23.86-.288.071-.638-.113-1.44-.277v-5.283c0-36.164.018-72.329-.01-108.493-.01-14.233-6.624-20.896-20.723-20.905-34.998-.023-70.001.34-104.992-.176-14.33-.211-21.51 9.89-21.25 21.42.292 12.994.077 25.998.052 38.997-.003 1.542-.203 3.083-.342 5.067-1.348-.678-2.07-1.036-2.788-1.404-11.382-5.84-20.58-2.035-24.69 10.18-.953 2.834-1.911 5.677-3.074 8.428-9.707 22.968-24.369 42.762-40.132 61.77-7.305 8.808-15.365 16.99-23.082 25.456z"/><path fill="#3CB7FF" d="M91.819 277.8c7.99-8.66 16.049-16.843 23.354-25.652 15.763-19.007 30.425-38.801 40.132-61.769 1.163-2.751 2.121-5.594 3.074-8.428 4.11-12.215 13.308-16.02 24.69-10.18.717.368 1.44.726 2.788 1.404.14-1.984.34-3.525.342-5.067.025-13 .24-26.003-.053-38.996-.26-11.531 6.92-21.632 21.251-21.42 34.99.515 69.994.152 104.992.175 14.099.009 20.713 6.672 20.724 20.905.027 36.164.009 72.329.01 108.493v5.283c.801.164 1.151.348 1.438.278 17.39-4.26 30.202 5.456 31.441 23.86.922 13.684-1.428 20.058-12.252 32.783 6.974 7.496 9.953 16.621 9.183 26.823-.798 10.57-4.67 19.634-13.61 26.116-1.292.936-2.326 3.147-2.344 4.78-.166 14.871-7.172 25.804-19.473 33.35-12.295 7.542-26.842 4.327-31.847-7.117-2.06-4.713-2.268-10.237-3.526-16.413h-4.743c-26.831 0-53.663.014-80.495-.007-12.962-.01-20.364-7.288-20.657-20.363-.122-5.452-.02-10.908-.02-16.581-6.274 2.185-11.916 5.41-17.778 5.88-7.654.614-9.48 4.809-10.15 10.938-.796 7.268-1.645 14.533-2.296 21.814-.478 5.344-1.65 6.466-7.667 6.258-.42.078-.348.06-.353-.291-.554-2.736-1.798-5.203-1.53-7.493 1.137-9.724 2.132-19.527 4.26-29.06 5.557-24.906 16.226-47.8 28.897-69.813 4.33-7.521 6.551-15.526 6.489-24.264-.123-17.159-.196-34.323.092-51.478.102-6.07-2.778-9.668-7.585-12.358-5.266-2.948-8.796-1.575-10.883 4.075-1.612 4.367-3.009 8.842-4.99 13.038-15.626 33.108-38.695 60.816-63.656 87.11-1.257 1.323-3.44 1.768-5.19 2.621-4.413-2.076-4.893-5.166-2.06-9.234m232.144-47.3c0-33.997.017-67.994-.013-101.99-.007-8.013-3.318-11.476-11.081-11.485-35.33-.042-70.66-.043-105.99.002-7.716.01-10.971 3.321-10.973 10.966-.016 72.826-.017 145.652-.002 218.478.001 8.008 3.198 11.35 11.12 11.366 28.663.058 57.328.072 85.99-.099 1.704-.01 3.65-1.505 5.05-2.783 5.34-4.876 10.255-10.248 15.85-14.794 2.244-1.823 2.13-3.148 1.724-5.38-2.08-11.409-.896-22.197 6.491-31.687 2.785-3.578 2.709-7.527.683-11.194-5.854-10.594-7-21.802-2.178-32.615 3.024-6.78 3.36-13.344 3.33-20.286-.01-2.5 0-5 0-8.5m11.173 115.494c3.148-.65 6.907-.417 9.34-2.1 10.644-7.362 12.024-28.083 2.865-37.126-3.955-3.905-8.72-4.798-13.135-1.897-7.36 4.838-10.067 12.471-9.955 20.661.109 8.02 1.738 16.002 10.885 20.462m17.777-89.256c-4.882-8.169-15.05-8.57-20.909 1.138-5.446 9.024-5.984 18.54-1.188 27.99 5.085 10.017 14.92 10.646 21.138 1.25 6.286-9.498 6.622-19.552.959-30.378m-48.837 108.217c-.458 2.935-1.332 5.875-1.295 8.804.108 8.557 6.081 12.989 14.418 11.024 11.868-2.797 21.063-16.11 19.635-27.148-4.799-2.826-9.281-4.944-13.103-7.913-2.302-1.788-3.908-1.92-6.156-.62-6.121 3.543-10.44 8.64-13.499 15.853m-124.509-42.85c5.359-2.064 7.114-5.79 6.798-11.606-.53-9.771-.132-19.592-.164-29.391-.003-1.133-.253-2.265-.513-4.43-9.213 16.637-16.848 32.648-21.913 49.754l1.014 1.332c4.71-1.759 9.419-3.517 14.778-5.66z"/><path fill="#F5F6F6" d="M93.934 287.447c1.695-1.266 3.877-1.71 5.134-3.034 24.96-26.294 48.03-54.002 63.657-87.11 1.98-4.196 3.377-8.671 4.99-13.038 2.086-5.65 5.616-7.023 10.882-4.075 4.807 2.69 7.687 6.289 7.585 12.358-.288 17.155-.215 34.32-.092 51.478.062 8.738-2.16 16.743-6.489 24.264-12.67 22.013-23.34 44.907-28.898 69.813-2.127 9.533-3.122 19.336-4.26 29.06-.267 2.29.977 4.757 1.537 7.53-.73.114-1.65.035-2.19-.46-15.845-14.558-29.55-30.867-39.167-50.214-5.7-11.47-10.725-23.303-12.69-36.572zM323.962 231c0 3-.009 5.5.002 8 .03 6.941-.307 13.505-3.33 20.285-4.822 10.813-3.677 22.02 2.177 32.615 2.026 3.667 2.102 7.616-.683 11.194-7.387 9.49-8.57 20.278-6.491 31.688.406 2.231.52 3.556-1.724 5.379-5.595 4.546-10.51 9.918-15.85 14.794-1.4 1.278-3.346 2.773-5.05 2.783-28.662.17-57.327.157-85.99.099-7.922-.016-11.119-3.358-11.12-11.366-.015-72.826-.014-145.652.002-218.478.002-7.645 3.257-10.957 10.973-10.966 35.33-.045 70.66-.044 105.99-.002 7.763.01 11.074 3.472 11.081 11.485.03 33.996.013 67.993.013 102.49m-56.302-52.21c-25.72-5.161-54.59 14.148-58.098 40.97-2.338 17.872-1.136 36.214-1.327 54.348-.031 2.952 2.006 5.51 5.097 4.683 1.813-.484 3.236-3.03 4.446-4.9.533-.825.104-2.275.104-3.44.008-14.327-.241-28.658.079-42.977.562-25.182 25.776-44.552 50.35-38.957 19.755 4.499 33.023 20.293 33.53 40.59.36 14.483.159 28.982.12 43.474-.008 3.319.483 6.282 4.488 6.384 4.03.102 4.724-2.797 4.712-6.157-.051-15.16.21-30.323-.101-45.476-.491-23.99-18.717-44.53-43.4-48.543m-16.417 170.694c1.048.494 2.062 1.08 3.147 1.466 7.093 2.523 14.576.147 18.953-5.974 4.145-5.798 3.808-14.401-.781-19.913-4.81-5.777-12.506-7.65-19.344-4.54-11.315 5.145-13.548 20.75-1.975 28.961m4.257-223.196c-6.477.006-12.958-.113-19.43.074-3.17.092-6.154 1.196-6.015 5.143.14 3.991 3.06 4.548 6.358 4.534 11.626-.05 23.251-.02 34.877-.02 4.318 0 8.638-.07 12.954.02 3.156.066 5.277-1.286 5.57-4.406.312-3.315-2.005-4.666-4.939-5.06-1.473-.198-2.972-.269-4.46-.274-7.971-.025-15.943-.011-24.915-.011m-11.361 119.95c-.393-9.44-.555-18.702 8.842-24.81.958-.622 1.086-4.66.134-5.556-1.264-1.19-4.449-1.785-5.97-1.003-5.856 3.01-9.911 8.077-11.087 14.52-1.029 5.637-.758 11.511-1.064 17.28-.172 3.246.282 6.28 4.325 6.462 3.99.18 4.953-2.57 4.82-6.893m3.23-48.082c-.596 5.217 1.12 7.559 5.58 6.61 7.7-1.638 14.77-.431 21.612 3.224 2.768 1.478 5.72.967 6.519-2.052.466-1.761-.726-5.095-2.22-6.013-3.463-2.126-7.446-3.858-11.43-4.578-6.606-1.193-13.48-2.318-20.06 2.809m-7.281 10.591c-2.588-4.398-5.317-4.948-8.397-1.464-5.83 6.592-8.764 14.436-9.35 23.149-.212 3.146 1.004 5.876 4.509 6.025 3.404.145 4.992-2.175 5.075-5.498.16-6.393 2.48-11.938 6.36-16.97.95-1.23 1.264-2.953 1.803-5.242m37.788 9.891c-3.664-2.177-7.176-4.694-11.042-6.415-2.741-1.22-5.808-.652-6.775 2.91-.85 3.135.875 5.002 3.818 5.922 6.046 1.89 9.766 5.914 11.314 12.084.747 2.975 2.808 4.738 5.923 3.692 2.84-.954 4.388-3.292 3.065-6.293-1.715-3.89-3.852-7.593-6.303-11.9m13.836 36.502c3.5.437 5.572-1.279 5.693-4.613.223-6.103.192-12.225-.028-18.329-.104-2.894-1.813-5.682-4.902-4.778-1.862.545-4.076 3.394-4.286 5.4-.585 5.568-.435 11.252-.07 16.858.118 1.81 1.802 3.517 3.593 5.462m-6.807 5.265c-.004-3.978.472-8.041-.218-11.896-.338-1.893-2.578-4.063-4.469-4.804-.954-.374-4.314 2.065-4.41 3.39-.49 6.742-.548 13.557-.062 20.295.097 1.344 3.204 3.362 4.963 3.405 1.353.033 3.246-2.33 4.016-4.03.688-1.516.167-3.58.18-6.36m-21.59-20.073c2.05-.441 5.42-.353 5.856-1.44.743-1.855.437-5.654-.837-6.492-3.087-2.029-6.999-3.893-10.552-3.846-4.539.06-7.604 3.56-8.868 8.173-.957 3.493-1.162 7.028 3.04 8.15 4.31 1.15 5.881-1.796 6.205-5.645.035-.416.476-.799 1.114-1.804 1.21.864 2.307 1.649 4.042 2.904m-1.453 16.5c0 3.645.04 7.29-.011 10.934-.045 3.228.329 6.233 4.463 6.306 4.06.072 4.772-2.714 4.706-6.067-.076-3.809-.12-7.624.013-11.43.115-3.255-.988-5.874-4.34-6.119-3.402-.248-4.995 2.073-4.83 6.376m-33.663 5.05c3.754-2.525 5.437-13.104 2.339-16.263-.972-.991-3.214-1.808-4.307-1.35-1.56.654-3.293 2.376-3.7 3.963-.635 2.482-.245 5.232-.25 7.869-.006 3.446 1.375 5.714 5.918 5.782m9.722 10.88c1.67-.39 4.728-.627 4.79-1.193.443-4.033 1.07-8.35.035-12.138-.747-2.73-6.413-2.054-7.107.947-.922 3.99-2.22 8.439 2.282 12.384m14.001-24.714c-4.212 2.107-4.175 5.67-2.868 9.338 1.214 3.408 5.934 3.848 8.055.94 2.837-3.89.518-9.383-5.187-10.278z"/><path fill="#F3F5F6" d="M334.744 345.88c-8.755-4.347-10.384-12.33-10.493-20.349-.112-8.19 2.595-15.823 9.955-20.66 4.414-2.902 9.18-2.009 13.135 1.896 9.159 9.043 7.78 29.764-2.865 37.126-2.433 1.683-6.192 1.45-9.732 1.988z"/><path fill="#F4F5F6" d="M353.084 257.073c5.492 10.49 5.156 20.544-1.13 30.042-6.219 9.396-16.053 8.767-21.138-1.25-4.796-9.45-4.258-18.966 1.188-27.99 5.86-9.709 16.027-9.307 21.08-.802z"/><path fill="#F3F5F6" d="M304.229 364.584c2.906-6.843 7.225-11.94 13.346-15.483 2.248-1.3 3.854-1.168 6.156.62 3.822 2.969 8.304 5.087 13.103 7.913 1.428 11.039-7.767 24.351-19.635 27.148-8.337 1.965-14.31-2.467-14.418-11.024-.037-2.93.837-5.87 1.448-9.174z"/><path fill="#F2F5F6" d="M179.242 322.295c-5.034 1.95-9.743 3.71-14.453 5.468l-1.014-1.332c5.065-17.106 12.7-33.117 21.913-49.754.26 2.165.51 3.297.513 4.43.032 9.8-.366 19.62.164 29.39.316 5.817-1.44 9.543-7.123 11.798z"/><path fill="#3EB8FF" d="M268.09 178.85c24.253 3.952 42.479 24.491 42.97 48.482.31 15.153.05 30.317.101 45.476.012 3.36-.682 6.259-4.712 6.157-4.005-.102-4.496-3.065-4.488-6.384.039-14.492.24-28.99-.12-43.474-.507-20.297-13.775-36.091-33.53-40.59-24.574-5.595-49.788 13.775-50.35 38.957-.32 14.319-.07 28.65-.079 42.976 0 1.166.43 2.616-.104 3.44-1.21 1.871-2.633 4.417-4.446 4.901-3.091.827-5.128-1.731-5.097-4.683.191-18.134-1.01-36.476 1.327-54.347 3.507-26.823 32.379-46.132 58.528-40.911z"/><path fill="#3DB8FF" d="M250.932 349.272c-11.262-8-9.03-23.605 2.286-28.75 6.838-3.11 14.533-1.237 19.344 4.54 4.59 5.512 4.926 14.115.78 19.913-4.376 6.121-11.859 8.497-18.952 5.974-1.085-.387-2.1-.972-3.458-1.677m2.593-16.847c-1.23 6.415 1.909 11.165 7.073 9.852 2.4-.61 5.494-3.318 5.916-5.526.422-2.21-1.461-5.865-3.468-7.304-3.182-2.282-6.68-.926-9.521 2.978z"/><path fill="#42B9FF" d="M256 126.287c8.472 0 16.444-.014 24.416.011 1.487.005 2.986.076 4.459.273 2.934.395 5.25 1.746 4.94 5.061-.294 3.12-2.415 4.472-5.571 4.407-4.316-.09-8.636-.02-12.954-.02-11.626 0-23.251-.032-34.877.019-3.297.014-6.219-.543-6.358-4.534-.139-3.947 2.845-5.051 6.016-5.143 6.471-.187 12.952-.068 19.93-.074z"/><path fill="#3CB7FF" d="M244.138 246.696c.134 3.863-.83 6.614-4.82 6.434-4.042-.183-4.496-3.216-4.324-6.461.306-5.77.035-11.644 1.064-17.281 1.176-6.443 5.23-11.51 11.087-14.52 1.521-.782 4.706-.188 5.97 1.003.952.897.824 4.934-.134 5.556-9.397 6.108-9.235 15.37-8.843 25.27z"/><path fill="#3FB8FF" d="M247.612 197.835c6.338-4.807 13.212-3.682 19.818-2.489 3.984.72 7.967 2.452 11.43 4.578 1.494.918 2.686 4.252 2.22 6.013-.799 3.019-3.751 3.53-6.519 2.052-6.842-3.655-13.912-4.862-21.612-3.224-4.46.949-6.176-1.393-5.337-6.93zM240.122 209.142c-.572 1.893-.886 3.615-1.836 4.847-3.88 5.03-6.2 10.576-6.36 16.969-.083 3.323-1.67 5.643-5.075 5.498-3.505-.149-4.721-2.879-4.51-6.025.587-8.713 3.522-16.557 9.35-23.15 3.081-3.483 5.81-2.933 8.431 1.861zM278.124 218.899c2.204 4.045 4.34 7.749 6.056 11.638 1.323 3-.224 5.34-3.065 6.293-3.115 1.046-5.176-.717-5.923-3.692-1.548-6.17-5.268-10.194-11.314-12.084-2.943-.92-4.668-2.787-3.818-5.923.967-3.561 4.034-4.13 6.775-2.909 3.866 1.721 7.378 4.238 11.29 6.677z"/><path fill="#41B9FF" d="M291.302 255.044c-1.38-1.85-3.064-3.558-3.182-5.367-.365-5.606-.515-11.29.07-16.857.21-2.007 2.424-4.856 4.286-5.4 3.089-.905 4.798 1.883 4.902 4.777.22 6.104.25 12.226.028 18.33-.12 3.333-2.193 5.049-6.104 4.517z"/><path fill="#45BBFE" d="M284.906 260.882c-.013 2.301.508 4.366-.18 5.883-.77 1.698-2.663 4.062-4.016 4.029-1.76-.043-4.866-2.061-4.963-3.405-.486-6.738-.429-13.553.062-20.295.096-1.325 3.456-3.764 4.41-3.39 1.89.741 4.13 2.91 4.47 4.804.689 3.855.213 7.918.217 12.374z"/><path fill="#3FB8FF" d="M262.998 240.095c-1.417-1.02-2.514-1.804-3.724-2.668-.638 1.005-1.08 1.388-1.114 1.804-.324 3.85-1.895 6.796-6.205 5.645-4.202-1.122-3.997-4.657-3.04-8.15 1.264-4.613 4.33-8.113 8.868-8.173 3.553-.047 7.465 1.817 10.552 3.846 1.274.838 1.58 4.637.837 6.491-.436 1.088-3.806 1-6.174 1.205z"/><path fill="#3BB7FF" d="M261.864 256.38c-.165-3.852 1.428-6.173 4.83-5.925 3.352.245 4.455 2.864 4.34 6.119-.133 3.806-.089 7.621-.013 11.43.066 3.353-.646 6.14-4.706 6.067-4.134-.073-4.508-3.078-4.463-6.306.05-3.644.011-7.29.012-11.384z"/><path fill="#44BAFE" d="M227.81 261.935c-4.152-.12-5.533-2.39-5.527-5.835.005-2.637-.385-5.387.25-7.869.407-1.587 2.14-3.31 3.7-3.963 1.093-.458 3.335.359 4.307 1.35 3.098 3.159 1.415 13.738-2.73 16.317z"/><path fill="#3CB7FF" d="M237.563 272.565c-4.143-3.748-2.844-8.197-1.922-12.187.694-3.001 6.36-3.677 7.107-.947 1.035 3.788.408 8.105-.035 12.138-.062.566-3.12.804-5.15.996z"/><path fill="#40B9FF" d="M252.32 247.982c5.31.961 7.628 6.454 4.79 10.345-2.12 2.907-6.84 2.467-8.054-.94-1.307-3.669-1.344-7.232 3.264-9.405z"/><path fill="#EEF3F6" d="M253.726 332.09c2.64-3.57 6.138-4.925 9.32-2.643 2.007 1.439 3.89 5.094 3.468 7.304-.422 2.208-3.516 4.916-5.916 5.526-5.164 1.313-8.303-3.437-6.872-10.188z"/></svg>