<svg xmlns="http://www.w3.org/2000/svg" xml:space="preserve" viewBox="0 0 500 500"><path d="M278 501H1V1h500v500H278M51.46 231.038c.177 13.893-.142 27.816.657 41.673.996 17.279 5.451 33.835 11.736 50.019 13.4 34.505 34.388 63.266 63.488 86.113 30.828 24.203 66.016 38.063 104.782 41.846 15.577 1.52 31.613.756 47.21-1.002 17.527-1.976 34.527-7.344 50.774-14.355 35.087-15.14 63.765-38.442 85.606-69.782 20.262-29.075 32.288-61.54 35.017-96.809 1.739-22.46.477-45.01-5.338-67.153-4.947-18.835-12.614-36.327-22.229-53.167-11.724-20.535-27.163-37.855-45.218-52.825-15.718-13.033-33.175-23.565-52.402-30.488-13.494-4.858-27.345-9.451-41.43-11.733-14.413-2.334-29.326-2.498-43.982-2.122-11.503.295-23.041 2.367-34.398 4.524-21.266 4.04-40.626 13.11-59.148 24.048-20.171 11.912-37.406 27.368-52.09 45.44-12.43 15.298-22.043 32.478-29.49 50.783-7.077 17.398-11.78 35.386-13.545 54.99z"/><path fill="#38B6FF" d="M51.695 230.637c1.53-19.203 6.233-37.191 13.31-54.59 7.447-18.304 17.06-35.484 29.49-50.783 14.684-18.071 31.919-33.527 52.09-45.439 18.522-10.938 37.882-20.007 59.148-24.048 11.357-2.157 22.895-4.229 34.398-4.524 14.656-.376 29.57-.212 43.982 2.122 14.085 2.282 27.936 6.875 41.43 11.733 19.227 6.923 36.684 17.455 52.402 30.488 18.055 14.97 33.494 32.29 45.218 52.825 9.615 16.84 17.282 34.332 22.229 53.167 5.815 22.143 7.077 44.692 5.338 67.153-2.73 35.268-14.755 67.734-35.017 96.809-21.841 31.34-50.52 54.642-85.606 69.782-16.247 7.011-33.247 12.38-50.773 14.355-15.598 1.758-31.634 2.522-47.211 1.002-38.766-3.783-73.954-17.643-104.782-41.846-29.1-22.847-50.088-51.608-63.488-86.113-6.285-16.184-10.74-32.74-11.736-50.019-.799-13.857-.48-27.78-.422-42.074m36.793 134.34c11.408 16.291 25.042 30.459 40.694 42.71 15.054 11.781 31.296 21.665 49.34 27.934a308.926 308.926 0 0 0 40.164 10.998 154.95 154.95 0 0 0 32.71 3.03c11.534-.17 23.061-2.167 34.55-3.684 17.654-2.331 34.316-8.183 50.295-15.75 25.307-11.982 47.042-28.692 65.274-50.105 15.992-18.782 28.199-39.55 36.497-62.78 5.608-15.696 9.498-31.874 10.652-48.306 1.083-15.433.97-31.019-1.404-46.611-3.009-19.763-8.558-38.595-16.974-56.542-11.89-25.357-28.706-47.02-50.074-65.299-19.647-16.806-41.458-29.551-65.994-37.558-21.918-7.153-44.304-10.707-67.53-10.248-16.375.323-32.205 2.904-47.892 6.917-23.484 6.008-45.023 16.422-64.512 30.734-18.655 13.7-34.68 30.072-47.706 49.358-10.702 15.843-18.863 32.839-24.58 51.027-5.604 17.829-9.28 35.995-9.009 54.805.07 4.831-.396 9.706.092 14.49 1.175 11.528 1.895 23.206 4.372 34.478 5.541 25.211 15.63 48.628 31.035 70.402z"/><path d="M88.272 364.677c-15.189-21.474-25.278-44.891-30.819-70.102-2.477-11.272-3.197-22.95-4.372-34.479-.488-4.783-.022-9.658-.092-14.49-.271-18.809 3.405-36.975 9.009-54.804 5.717-18.188 13.878-35.184 24.58-51.027 13.027-19.286 29.051-35.658 47.706-49.358 19.489-14.312 41.028-24.726 64.512-30.734 15.687-4.013 31.517-6.594 47.892-6.917 23.226-.459 45.612 3.095 67.53 10.248 24.536 8.007 46.347 20.752 65.994 37.558 21.368 18.279 38.184 39.942 50.074 65.299 8.416 17.947 13.965 36.78 16.974 56.542 2.374 15.592 2.487 31.178 1.404 46.61-1.154 16.433-5.044 32.611-10.652 48.307-8.298 23.23-20.505 43.998-36.497 62.78-18.232 21.413-39.967 38.123-65.274 50.106-15.98 7.566-32.64 13.418-50.296 15.749-11.488 1.517-23.015 3.514-34.549 3.685a154.95 154.95 0 0 1-32.71-3.03 308.926 308.926 0 0 1-40.164-10.999c-18.044-6.269-34.286-16.153-49.34-27.934-15.652-12.251-29.286-26.419-40.91-43.01m5.703-76.68c.798 3.629 1.258 7.374 2.451 10.868 6.046 17.703 13.774 34.668 25.71 49.189 7.346 8.938 15.926 16.863 24.273 25.776.588.578 1.177 1.156 2.018 2.185.845.37 1.69.74 2.661 1.568.185.293.451.446 1.021 1.027.64.411 1.28.822 2.441 1.45.443.326.886.653 1.553 1.548.642.412 1.284.823 2.447 1.451.443.327.886.653 1.553 1.549.642.411 1.284.823 2.567 1.549 21.994 14.44 46.168 22.745 73.19 25.848 10.072-.056 20.144-.113 31.044-.025 3.329-.658 6.631-1.656 9.991-1.916 13.785-1.066 26.624-5.738 39.003-11.203 21.86-9.65 40.844-23.36 56.628-41.675 15.86-18.405 27.078-39.046 34.038-62.199 4.313-14.344 5.68-29.143 6.118-43.935.253-8.56-1.751-17.179-2.656-25.78-1.892-17.996-8.758-34.507-16.333-50.546-7.233-15.317-18.87-27.806-30.515-39.952-12.545-13.084-27.555-22.677-44.048-30.35-28.31-13.171-57.696-17.065-88.577-13.617-19.031 2.124-36.756 7.88-53.65 16.309-18.093 9.028-33.266 21.794-46.795 36.962-13.548 15.19-23.578 32.13-30.697 51.025-5.01 13.296-8.238 27.038-9.272 41.146-.718 9.78-.334 19.659-.043 29.482.118 4.005 1.292 7.979 1.3 12.366-2.438 3.984-1.777 7.075 2.58 9.9z"/><path fill="#39B6FF" d="M151.886 378.042c-.347-.013-.613-.166-.846-.992-.037-.936-.025-1.34.355-1.844 3.838-.95 4.186-3.615 4.534-6.616a793.979 793.979 0 0 1 3.705-27.656c.206-1.353 1.374-3.306 2.505-3.654 7.844-2.41 15.795-4.469 23.969-6.71 0 4.855-.042 10.32.008 15.784.123 13.382 7.42 20.64 20.805 20.65 26.653.023 53.306.008 79.96.008h6.059c0 3.553-.19 6.38.035 9.174.717 8.878 7.138 16.525 15.08 17.707 7.123 1.06 13.992.088 20.084-4.096 11.279-7.746 17.785-18.147 17.962-32.17.021-1.693.827-4.029 2.087-4.95 10.04-7.351 13.889-17.518 13.948-29.48.045-9.126-3.005-17.185-9.292-23.951 10.425-9.428 13.7-20.954 12.14-34.16-1.352-11.452-8.68-21.389-18.17-23.337-4.358-.895-9.052-.152-14.207-.152v-4.992c-.001-35.816.054-71.631-.031-107.447-.035-14.448-6.897-21.312-20.997-21.323-34.816-.026-69.632-.028-104.448.001-14.041.012-20.988 7.088-21.019 21.321-.028 12.827.003 25.654-.018 38.481-.002 1.704-.156 3.407-.26 5.517-1.311-.627-1.9-.888-2.472-1.185-11.61-6.034-20.95-2.276-25.155 10.008-1.505 4.399-3.068 8.808-5.022 13.019-9.895 21.325-23.714 40.09-38.68 58.02-7.117 8.526-14.927 16.473-22.423 24.681-.694-3.988-1.868-7.962-1.986-11.967-.291-9.823-.675-19.703.043-29.482 1.034-14.108 4.263-27.85 9.272-41.145 7.12-18.895 17.149-35.836 30.697-51.026 13.529-15.168 28.702-27.934 46.795-36.962 16.894-8.43 34.619-14.185 53.65-16.31 30.88-3.447 60.267.447 88.577 13.618 16.493 7.673 31.503 17.266 44.048 30.35 11.646 12.146 23.282 24.635 30.515 39.952 7.575 16.04 14.441 32.55 16.333 50.546.905 8.601 2.91 17.22 2.656 25.78-.438 14.792-1.805 29.59-6.118 43.935-6.96 23.153-18.178 43.794-34.038 62.199-15.784 18.315-34.768 32.025-56.628 41.675-12.38 5.465-25.218 10.137-39.003 11.203-3.36.26-6.662 1.258-10.71 1.545a413.758 413.758 0 0 0-24.075-.577c-2.397.009-4.792.521-7.188.803-26.084-2.933-50.258-11.239-72.673-26.123-1.071-.854-1.72-1.263-2.37-1.673-.443-.327-.886-.653-1.69-1.376-1.01-.805-1.66-1.214-2.31-1.624a19.335 19.335 0 0 1-1.689-1.375c-1.008-.804-1.656-1.213-2.304-1.622z"/><path fill="#F0F4F6" d="M91.739 277.897c7.839-8.407 15.649-16.354 22.766-24.88 14.966-17.93 28.785-36.695 38.68-58.02 1.954-4.211 3.517-8.62 5.022-13.02 4.204-12.283 13.545-16.041 25.155-10.007.571.297 1.16.558 2.472 1.185.104-2.11.258-3.813.26-5.517.021-12.827-.01-25.654.018-38.48.031-14.234 6.978-21.31 21.019-21.322 34.816-.029 69.632-.027 104.448-.001 14.1.01 20.962 6.875 20.997 21.323.085 35.816.03 71.631.03 107.447v4.992c5.156 0 9.85-.743 14.208.152 9.49 1.948 16.818 11.885 18.17 23.337 1.56 13.206-1.715 24.732-12.14 34.16 6.287 6.766 9.337 14.825 9.292 23.952-.06 11.96-3.908 22.128-13.948 29.478-1.26.922-2.066 3.258-2.087 4.952-.177 14.022-6.683 24.423-17.962 32.17-6.092 4.183-12.96 5.155-20.085 4.095-7.94-1.182-14.362-8.83-15.079-17.707-.226-2.794-.035-5.621-.035-9.174h-6.06c-26.653 0-53.306.015-79.96-.007-13.383-.011-20.68-7.269-20.804-20.65-.05-5.465-.008-10.93-.008-15.786-8.174 2.242-16.125 4.3-23.97 6.711-1.13.348-2.298 2.3-2.504 3.654a793.979 793.979 0 0 0-3.705 27.656c-.348 3-.696 5.666-4.896 6.54-1.44.161-2.15.297-2.86.433-.587-.577-1.176-1.155-1.824-2.467 1.086-10.972 1.515-21.353 3.52-31.42 5.12-25.723 15.808-49.352 28.836-71.972 4.93-8.56 7.497-17.631 7.362-27.603-.223-16.49-.24-32.99.037-49.478.098-5.824-2.61-9.423-7.12-12.178-5.637-3.445-9.269-2.044-11.57 4.123-1.977 5.294-3.796 10.685-6.264 15.75-15.499 31.818-37.883 58.613-61.958 84.127-1.27 1.345-3.432 1.848-5.178 2.743-4.395-2.016-5.056-5.107-2.275-9.29m104.14-34.398c-.07 34.162-.16 68.324-.198 102.486-.009 8.128 2.91 11.728 10.221 11.763 28.997.143 57.995.094 86.992-.013 1.386-.005 3.384-.87 4.05-1.968 4.61-7.612 10.751-13.468 18.992-17.23-3.632-12.36-2.673-23.998 4.79-34.455 3.12-4.374 3.29-8.51.977-12.95-6.142-11.785-5.82-23.574-.563-35.558 1.091-2.489 1.909-5.34 1.917-8.026.121-39.33.09-78.66.078-117.99-.003-9.724-2.808-12.54-12.47-12.542-33.997-.012-67.994-.008-101.991-.003-10.365 0-13.015 2.626-13 13.002.056 37.494.135 74.99.205 113.484m154.091 92.728c3.682-8.741 3.97-17.428-.759-25.876-5.002-8.937-14.137-9.687-20.1-1.452-6.974 9.631-7.305 20.041-2.028 30.519 4.187 8.312 12.897 9.314 19.183 2.404 1.326-1.457 2.274-3.257 3.704-5.595m3.863-76.279c-2.441-4.953-5.447-9.406-11.724-9.267-6.555.144-9.923 4.737-12.397 10.042-3.62 7.763-3.815 15.733-.482 23.617 2.006 4.746 5.063 8.935 10.686 9.292 5.536.35 9.328-3.089 11.993-7.58 4.78-8.06 5.336-16.578 1.924-26.104m-21.537 112.677c1.392-4.37 3.001-8.69 4.009-13.146.224-.988-1.425-2.841-2.643-3.632a116.015 116.015 0 0 0-11.067-6.331c-1.376-.692-3.42-1.256-4.702-.741-8.606 3.45-15.91 14.768-15.883 24.09.028 9.647 7.213 15.123 15.997 11.104 5.184-2.372 9.304-7.068 14.289-11.344M180.08 286.624c-6.402 12.87-12.467 25.872-16.569 40.462 7.635-.607 13.471-3.487 19.167-6.926 2.57-1.551 3.546-3.453 3.499-6.48-.167-10.809-.052-21.621-.083-32.433-.004-1.17-.266-2.338-.56-4.749-2.114 3.94-3.6 6.71-5.454 10.126z"/><path fill="#39B6FF" d="M93.995 287.592c1.765-1.299 3.927-1.802 5.197-3.147 24.075-25.514 46.46-52.309 61.958-84.127 2.468-5.065 4.287-10.456 6.263-15.75 2.302-6.167 5.934-7.568 11.571-4.123 4.51 2.755 7.218 6.354 7.12 12.178-.277 16.488-.26 32.987-.037 49.478.135 9.972-2.431 19.043-7.362 27.603-13.028 22.62-23.716 46.249-28.837 71.972-2.004 10.067-2.433 20.448-3.68 31.153-8.126-7.912-16.706-15.837-24.053-24.775-11.935-14.52-19.663-31.486-25.709-49.19-1.193-3.493-1.653-7.238-2.431-11.272z"/><path fill="#B3DFF9" d="M235.39 411.92c1.928-.367 4.323-.88 6.72-.888a460.5 460.5 0 0 1 23.66.505c-9.766.355-19.838.412-30.38.383z"/><path fill="#46BBFE" d="M148.3 375.79c.584-.363 1.293-.499 2.365-.56.35.48.338.884.312 1.591-.86-.067-1.705-.436-2.676-1.032zM151.997 378.326c.537.125 1.185.534 1.933 1.23-.54-.124-1.18-.535-1.933-1.23zM155.99 381.323c.538.126 1.188.535 1.939 1.232-.542-.124-1.184-.535-1.938-1.232zM159.99 384.323c.538.126 1.188.535 1.938 1.232-.541-.124-1.183-.536-1.937-1.232z"/><path fill="#39B6FF" d="M195.88 243c-.07-37.995-.15-75.49-.206-112.984-.015-10.376 2.635-13.001 13-13.002 33.997-.005 67.994-.009 101.992.003 9.66.003 12.466 2.818 12.469 12.542.013 39.33.043 78.66-.078 117.99-.008 2.687-.826 5.537-1.917 8.026-5.258 11.984-5.579 23.773.563 35.559 2.313 4.44 2.143 8.575-.978 12.949-7.462 10.457-8.421 22.095-4.79 34.455-8.24 3.762-14.38 9.618-18.992 17.23-.665 1.099-2.663 1.963-4.049 1.968-28.997.107-57.995.156-86.992.013-7.312-.035-10.23-3.635-10.221-11.763.037-34.162.128-68.324.198-102.986m37.128-57.537c-13.735 8.697-22.922 20.891-24.142 37.155-1.28 17.069-.646 34.281-.842 51.43-.004.33-.047.795.14.969 1.46 1.354 2.948 3.646 4.478 3.686 1.507.038 3.485-1.965 4.48-3.558.777-1.243.459-3.23.462-4.886.029-13.999-.13-28 .058-41.997.23-17.092 11.37-32.38 27.451-38.149 16.252-5.83 34.314-1.177 45.535 11.671 6.978 7.99 10.526 17.237 10.513 27.858-.018 14.332.001 28.665-.002 42.997 0 3.32.842 6.232 4.77 6.27 3.948.039 4.732-2.984 4.94-6.209.012-.166.01-.333.01-.5-.004-13.832.395-27.679-.086-41.495-1.457-41.837-41.033-65.141-77.765-45.242m42.46 153.266c1.563-12.517-8.467-22.213-19.86-19.198-7.907 2.092-13.072 9.104-12.537 17.017.52 7.686 6.508 14.16 14.122 15.264 8.092 1.174 15.135-3.622 18.275-13.083m-25.961-212.34c-4.66.015-9.322-.052-13.979.073-3.068.082-5.874 1.103-5.846 4.74.029 3.85 2.78 4.848 6.188 4.832 9.32-.043 18.64-.01 27.96-.014 6.823-.003 13.67.286 20.453-.24 1.723-.133 4.138-2.677 4.54-4.49.267-1.2-2.27-3.393-3.966-4.523-1.073-.715-2.904-.362-4.396-.366-9.986-.022-19.971-.011-30.954-.012m-13.692 102.115c-.45 6.6-1.22 13.203-1.123 19.793.024 1.635 2.632 4.203 4.45 4.625 3.22.746 4.661-1.923 4.81-4.908.158-3.152.208-6.325.034-9.474-.37-6.668 1.768-12.007 7.478-15.814 2.515-1.676 3.533-4.125 1.608-6.852-1.928-2.73-4.924-2.836-6.928-.72-3.689 3.897-6.78 8.358-10.329 13.35m19.413-33.72c-1.15.145-2.314.223-3.447.451-3.221.649-5.934 2.045-5.05 5.92.848 3.722 3.656 4.116 7.023 3.397 6.926-1.48 13.494-.194 19.703 3.09 2.884 1.527 5.634 1.588 7.183-1.6 1.524-3.136-.2-5.317-3.037-6.839-6.745-3.618-13.896-5.224-22.375-4.42m-29.04 20.02c-1.357 5.591-3.078 11.135-3.812 16.807-.182 1.402 2.636 4.106 4.462 4.525 1.166.268 4.255-2.458 4.394-4.027.654-7.375 3.117-13.751 7.582-19.665.928-1.23.15-4.847-1.1-6.224-.792-.873-4.487-.332-5.85.807-2.209 1.847-3.572 4.705-5.676 7.777m56.747 20.526c.282-1.57 1.01-3.21.772-4.695-1.344-8.383-9.302-16.712-17.452-18.58-3.08-.706-6.275-.338-6.545 3.146-.142 1.834 2.033 4.92 3.867 5.636 5.751 2.246 9.368 5.965 11.039 11.815 1.212 4.244 3.688 5.743 8.319 2.678m11.847 19.18c.698-1.618 1.925-3.212 1.998-4.857.248-5.646.127-11.31.078-16.965-.026-3.046-1.415-5.353-4.614-5.424-3.55-.079-4.836 2.424-4.855 5.656-.03 5.49-.05 10.98.004 16.47.044 4.4 2.067 6.536 7.39 5.12m-37.66-26.174c-6.03 2.246-9.371 5.92-8.92 11.08.172 1.967 2.383 3.755 3.665 5.624 1.82-1.29 3.79-2.42 5.396-3.936.808-.763.955-2.226 1.554-3.764 1.258.836 2.118 1.26 2.795 1.882 2.29 2.104 4.661 2.673 6.982.231 2.346-2.47 1.691-5.442-.625-6.97-2.996-1.975-6.677-2.911-10.848-4.147m24.938 15.932c-3.977-1.358-6.786-.317-6.979 4.177-.256 5.985-.406 12.022.164 17.963.161 1.68 2.996 3.102 4.604 4.642 1.424-1.545 3.86-2.961 4.076-4.66.584-4.59.386-9.309.175-13.962-.117-2.555-.887-5.08-2.04-8.16m-11.198 23.727c.003-3.663.046-7.327-.004-10.99-.047-3.47-1.025-6.673-5.136-6.549-3.797.115-4.637 3.163-4.602 6.476.036 3.497.04 6.995-.002 10.491-.038 3.222.39 6.216 4.349 6.66 3.702.415 4.873-2.122 5.395-6.088m-39.307-18.787c-.371-3.185-1.781-5.526-5.344-5.105-3.55.42-4.244 3.196-4.224 6.244.016 2.314-.563 4.886.264 6.867.793 1.901 2.899 4.118 4.724 4.423 1.232.206 3.674-2.416 4.316-4.221.787-2.213.261-4.893.264-8.208m11.872 21.308c.197-1.789.503-3.574.568-5.367.123-3.44.06-7.127-4.627-7.2-4.669-.07-4.768 3.68-4.95 7.066-.044.822-.016 1.658.084 2.475.67 5.494 3.679 6.807 8.925 3.026m13.637-19.994c-1.791-3.01-4.921-4.011-6.865-1.482-1.57 2.044-1.588 5.73-1.241 8.557.124 1.012 4.299 2.783 4.95 2.231 1.721-1.46 2.625-3.955 3.639-6.138.294-.635-.136-1.606-.483-3.168z"/><path fill="#3AB7FF" d="M349.816 336.576c-1.276 1.99-2.224 3.79-3.55 5.247-6.286 6.91-14.996 5.908-19.183-2.404-5.277-10.478-4.946-20.888 2.028-30.52 5.963-8.234 15.098-7.484 20.1 1.453 4.73 8.448 4.44 17.135.605 26.224z"/><path fill="#3BB7FF" d="M353.965 260.317c3.28 9.158 2.725 17.677-2.056 25.736-2.665 4.491-6.457 7.93-11.993 7.58-5.623-.357-8.68-4.546-10.686-9.292-3.333-7.884-3.139-15.854.482-23.617 2.474-5.305 5.842-9.898 12.397-10.042 6.277-.14 9.283 4.314 11.856 9.635zM332.103 372.939c-4.792 3.963-8.912 8.659-14.096 11.03-8.784 4.02-15.969-1.456-15.997-11.103-.027-9.322 7.277-20.64 15.883-24.09 1.283-.515 3.326.049 4.702.74a116.015 116.015 0 0 1 11.067 6.332c1.218.791 2.867 2.644 2.643 3.632-1.008 4.456-2.617 8.777-4.202 13.459z"/><path fill="#3CB7FF" d="M180.265 286.301c1.67-3.093 3.155-5.862 5.269-9.803.294 2.411.556 3.58.56 4.75.031 10.81-.084 21.623.083 32.432.047 3.027-.93 4.929-3.5 6.48-5.695 3.44-11.53 6.32-19.166 6.926 4.102-14.59 10.167-27.593 16.754-40.785z"/><path fill="#EFF4F6" d="M233.315 185.264c36.424-19.7 76 3.604 77.457 45.441.481 13.816.082 27.663.085 41.495 0 .167.003.334-.008.5-.209 3.225-.993 6.248-4.941 6.21-3.928-.039-4.77-2.952-4.77-6.27.003-14.333-.016-28.666.002-42.998.013-10.621-3.535-19.868-10.513-27.858-11.221-12.848-29.283-17.5-45.535-11.67-16.082 5.767-27.221 21.056-27.45 38.148-.188 13.997-.03 27.998-.059 41.997-.003 1.657.315 3.643-.462 4.886-.995 1.593-2.973 3.596-4.48 3.558-1.53-.04-3.017-2.332-4.478-3.686-.187-.174-.144-.64-.14-.968.196-17.15-.438-34.362.842-51.431 1.22-16.264 10.407-28.458 24.45-37.354z"/><path fill="#F0F4F6" d="M275.364 339.119c-3.037 9.07-10.08 13.867-18.172 12.693-7.614-1.105-13.603-7.578-14.122-15.264-.535-7.913 4.63-14.925 12.537-17.017 11.393-3.015 21.423 6.681 19.757 19.588m-22.528-5.785c-.477 5.417 1.61 8.674 5.86 9.137 3.75.41 7.806-2.414 7.457-6.158-.235-2.517-1.962-5.814-4.038-7.034-3.58-2.105-7.004-.43-9.279 4.055z"/><path fill="#ECF3F6" d="M250.005 126.39c10.484 0 20.47-.01 30.455.011 1.492.004 3.323-.349 4.396.366 1.695 1.13 4.233 3.324 3.967 4.523-.403 1.813-2.818 4.357-4.541 4.49-6.783.526-13.63.237-20.453.24-9.32.005-18.64-.03-27.96.014-3.407.016-6.16-.983-6.188-4.832-.028-3.637 2.778-4.658 5.846-4.74 4.657-.125 9.319-.058 14.478-.072z"/><path fill="#EEF3F6" d="M235.918 228.121c3.444-4.609 6.536-9.07 10.225-12.967 2.004-2.116 5-2.01 6.928.72 1.925 2.727.907 5.176-1.608 6.852-5.71 3.807-7.847 9.146-7.478 15.814.174 3.149.124 6.322-.034 9.474-.149 2.985-1.59 5.654-4.81 4.908-1.818-.422-4.426-2.99-4.45-4.625-.097-6.59.673-13.194 1.227-20.176z"/><path fill="#EFF4F6" d="M255.645 194.725c8.06-.746 15.212.86 21.957 4.478 2.837 1.522 4.561 3.703 3.037 6.84-1.549 3.187-4.299 3.126-7.183 1.6-6.209-3.285-12.777-4.57-19.703-3.091-3.367.719-6.175.325-7.023-3.396-.884-3.876 1.829-5.272 5.05-5.92 1.133-.23 2.297-.307 3.865-.51z"/><path fill="#EEF3F6" d="M226.379 214.483c1.912-2.752 3.275-5.61 5.485-7.457 1.362-1.139 5.057-1.68 5.85-.807 1.248 1.377 2.027 4.995 1.1 6.224-4.466 5.914-6.929 12.29-7.583 19.665-.14 1.569-3.228 4.295-4.394 4.027-1.826-.419-4.644-3.123-4.462-4.525.734-5.672 2.455-11.216 4.004-17.127z"/><path fill="#F1F4F6" d="M282.663 235.621c-4.36 2.773-6.836 1.274-8.048-2.97-1.671-5.85-5.288-9.569-11.039-11.815-1.834-.716-4.01-3.802-3.867-5.636.27-3.484 3.466-3.852 6.545-3.146 8.15 1.868 16.108 10.197 17.452 18.58.238 1.485-.49 3.126-1.043 4.987z"/><path fill="#E8F1F7" d="M294.415 254.7c-4.956 1.225-6.98-.912-7.023-5.311-.053-5.49-.035-10.98-.004-16.47.019-3.232 1.305-5.735 4.855-5.656 3.199.07 4.588 2.378 4.614 5.424.049 5.656.17 11.32-.078 16.965-.073 1.645-1.3 3.24-2.364 5.048z"/><path fill="#EEF3F6" d="M257.514 228.26c3.778 1.31 7.459 2.247 10.455 4.222 2.316 1.528 2.971 4.5.625 6.97-2.32 2.442-4.692 1.873-6.982-.23-.677-.623-1.537-1.047-2.795-1.883-.599 1.538-.746 3.001-1.554 3.764-1.606 1.516-3.576 2.646-5.396 3.936-1.282-1.87-3.493-3.657-3.665-5.623-.451-5.16 2.89-8.835 9.312-11.155z"/><path fill="#F4F5F6" d="M282.398 244.537c.814 2.81 1.584 5.335 1.7 7.89.212 4.653.41 9.371-.174 13.962-.216 1.699-2.652 3.115-4.076 4.66-1.608-1.54-4.443-2.963-4.604-4.642-.57-5.941-.42-11.978-.164-17.963.193-4.494 3.002-5.535 7.318-3.907z"/><path fill="#ECF2F6" d="M270.84 268.436c-.5 3.524-1.672 6.061-5.374 5.646-3.959-.444-4.387-3.438-4.349-6.66.042-3.496.038-6.994.002-10.49-.035-3.314.805-6.362 4.602-6.477 4.111-.124 5.089 3.08 5.136 6.549.05 3.663.007 7.327-.017 11.432z"/><path fill="#ECF3F6" d="M231.573 249.625c-.022 2.897.504 5.577-.283 7.79-.642 1.805-3.084 4.427-4.316 4.221-1.825-.305-3.931-2.522-4.724-4.423-.827-1.981-.248-4.553-.264-6.867-.02-3.048.674-5.824 4.224-6.244 3.563-.421 4.973 1.92 5.363 5.523z"/><path fill="#EEF3F6" d="M243.204 270.862c-5.024 3.434-8.034 2.121-8.703-3.373-.1-.817-.128-1.653-.084-2.475.182-3.387.281-7.137 4.95-7.065 4.687.072 4.75 3.758 4.627 7.199-.065 1.793-.37 3.578-.79 5.714z"/><path fill="#EAF2F7" d="M257.188 250.893c.222 1.19.652 2.161.358 2.796-1.014 2.183-1.918 4.678-3.64 6.138-.65.552-4.825-1.219-4.95-2.23-.346-2.829-.328-6.514 1.242-8.558 1.944-2.53 5.074-1.527 6.99 1.854z"/><path fill="#40B9FF" d="M252.946 332.983c2.165-4.134 5.59-5.809 9.17-3.704 2.075 1.22 3.802 4.517 4.037 7.034.349 3.744-3.707 6.568-7.457 6.158-4.25-.463-6.337-3.72-5.75-9.488z"/></svg>